<svg width="171" height="40" viewBox="0 0 171 40" fill="none" xmlns="http://www.w3.org/2000/svg">
<path d="M68.9346 17.264C68.5826 16.6187 68.0986 16.1273 67.4826 15.79C66.8666 15.4527 66.1479 15.284 65.3266 15.284C64.4173 15.284 63.6106 15.4893 62.9066 15.9C62.2026 16.3107 61.6526 16.8973 61.2566 17.66C60.8606 18.4227 60.6626 19.3027 60.6626 20.3C60.6626 21.3267 60.8606 22.2213 61.2566 22.984C61.6673 23.7467 62.2319 24.3333 62.9506 24.744C63.6693 25.1547 64.5053 25.36 65.4586 25.36C66.6319 25.36 67.5926 25.052 68.3406 24.436C69.0886 23.8053 69.5799 22.9327 69.8146 21.818H64.5346V19.464H72.8506V22.148C72.6453 23.2187 72.2053 24.2087 71.5306 25.118C70.8559 26.0273 69.9833 26.7607 68.9126 27.318C67.8566 27.8607 66.6686 28.132 65.3486 28.132C63.8673 28.132 62.5253 27.802 61.3226 27.142C60.1346 26.4673 59.1959 25.536 58.5066 24.348C57.8319 23.16 57.4946 21.8107 57.4946 20.3C57.4946 18.7893 57.8319 17.44 58.5066 16.252C59.1959 15.0493 60.1346 14.118 61.3226 13.458C62.5253 12.7833 63.8599 12.446 65.3266 12.446C67.0573 12.446 68.5606 12.8713 69.8366 13.722C71.1126 14.558 71.9926 15.7387 72.4766 17.264H68.9346ZM74.3813 20.3C74.3813 18.7893 74.7187 17.44 75.3933 16.252C76.0827 15.0493 77.014 14.118 78.1873 13.458C79.3753 12.7833 80.7027 12.446 82.1693 12.446C83.8853 12.446 85.3887 12.886 86.6793 13.766C87.97 14.646 88.872 15.8633 89.3853 17.418H85.8433C85.4913 16.6847 84.9927 16.1347 84.3473 15.768C83.7167 15.4013 82.9833 15.218 82.1473 15.218C81.2527 15.218 80.4533 15.4307 79.7493 15.856C79.06 16.2667 78.5173 16.8533 78.1213 17.616C77.74 18.3787 77.5493 19.2733 77.5493 20.3C77.5493 21.312 77.74 22.2067 78.1213 22.984C78.5173 23.7467 79.06 24.3407 79.7493 24.766C80.4533 25.1767 81.2527 25.382 82.1473 25.382C82.9833 25.382 83.7167 25.1987 84.3473 24.832C84.9927 24.4507 85.4913 23.8933 85.8433 23.16H89.3853C88.872 24.7293 87.97 25.954 86.6793 26.834C85.4033 27.6993 83.9 28.132 82.1693 28.132C80.7027 28.132 79.3753 27.802 78.1873 27.142C77.014 26.4673 76.0827 25.536 75.3933 24.348C74.7187 23.16 74.3813 21.8107 74.3813 20.3ZM114 12.644V28H110.92V18.012L106.806 28H104.474L100.338 18.012V28H97.2582V12.644H100.756L105.64 24.062L110.524 12.644H114ZM122.457 28.198C121.284 28.198 120.228 27.9413 119.289 27.428C118.351 26.9 117.61 26.1593 117.067 25.206C116.539 24.2527 116.275 23.1527 116.275 21.906C116.275 20.6593 116.547 19.5593 117.089 18.606C117.647 17.6527 118.402 16.9193 119.355 16.406C120.309 15.878 121.372 15.614 122.545 15.614C123.719 15.614 124.782 15.878 125.735 16.406C126.689 16.9193 127.437 17.6527 127.979 18.606C128.537 19.5593 128.815 20.6593 128.815 21.906C128.815 23.1527 128.529 24.2527 127.957 25.206C127.4 26.1593 126.637 26.9 125.669 27.428C124.716 27.9413 123.645 28.198 122.457 28.198ZM122.457 25.514C123.015 25.514 123.535 25.382 124.019 25.118C124.518 24.8393 124.914 24.4287 125.207 23.886C125.501 23.3433 125.647 22.6833 125.647 21.906C125.647 20.7473 125.339 19.86 124.723 19.244C124.122 18.6133 123.381 18.298 122.501 18.298C121.621 18.298 120.881 18.6133 120.279 19.244C119.693 19.86 119.399 20.7473 119.399 21.906C119.399 23.0647 119.685 23.9593 120.257 24.59C120.844 25.206 121.577 25.514 122.457 25.514ZM137.829 15.636C139.281 15.636 140.454 16.098 141.349 17.022C142.243 17.9313 142.691 19.2073 142.691 20.85V28H139.611V21.268C139.611 20.3 139.369 19.5593 138.885 19.046C138.401 18.518 137.741 18.254 136.905 18.254C136.054 18.254 135.379 18.518 134.881 19.046C134.397 19.5593 134.155 20.3 134.155 21.268V28H131.075V15.812H134.155V17.33C134.565 16.802 135.086 16.3913 135.717 16.098C136.362 15.79 137.066 15.636 137.829 15.636ZM156.95 21.642C156.95 22.082 156.92 22.478 156.862 22.83H147.952C148.025 23.71 148.333 24.3993 148.876 24.898C149.418 25.3967 150.086 25.646 150.878 25.646C152.022 25.646 152.836 25.1547 153.32 24.172H156.642C156.29 25.3453 155.615 26.3133 154.618 27.076C153.62 27.824 152.396 28.198 150.944 28.198C149.77 28.198 148.714 27.9413 147.776 27.428C146.852 26.9 146.126 26.1593 145.598 25.206C145.084 24.2527 144.828 23.1527 144.828 21.906C144.828 20.6447 145.084 19.5373 145.598 18.584C146.111 17.6307 146.83 16.8973 147.754 16.384C148.678 15.8707 149.741 15.614 150.944 15.614C152.102 15.614 153.136 15.8633 154.046 16.362C154.97 16.8607 155.681 17.572 156.18 18.496C156.693 19.4053 156.95 20.454 156.95 21.642ZM153.76 20.762C153.745 19.97 153.459 19.3393 152.902 18.87C152.344 18.386 151.662 18.144 150.856 18.144C150.093 18.144 149.448 18.3787 148.92 18.848C148.406 19.3027 148.091 19.9407 147.974 20.762H153.76ZM170.858 15.812L163.312 33.764H160.034L162.674 27.692L157.79 15.812H161.244L164.39 24.326L167.58 15.812H170.858Z" fill="white"/>
<path d="M34.1422 5.85781C30.3647 2.08031 25.3422 0 20 0C14.6578 0 9.63531 2.08031 5.85781 5.85781C2.08031 9.63531 0 14.6578 0 20C0 25.3422 2.08039 30.3646 5.85781 34.1422C9.63523 37.9198 14.6578 40 20 40C25.3422 40 30.3647 37.9197 34.1422 34.1422C37.9197 30.3647 40 25.3422 40 20C40 14.6578 37.9196 9.63539 34.1422 5.85781Z" fill="#33CC95"/>
<g clip-path="url(#clip0)">
<path d="M20.5715 8V33.1429" stroke="white" stroke-width="2" stroke-linecap="round" stroke-linejoin="round"/>
<path d="M26.2858 12.5714H17.7144C16.6535 12.5714 15.6361 12.9929 14.8859 13.743C14.1358 14.4931 13.7144 15.5106 13.7144 16.5714C13.7144 17.6323 14.1358 18.6497 14.8859 19.3999C15.6361 20.15 16.6535 20.5714 17.7144 20.5714H23.4286C24.4895 20.5714 25.5069 20.9929 26.2571 21.743C27.0072 22.4931 27.4286 23.5106 27.4286 24.5714C27.4286 25.6323 27.0072 26.6497 26.2571 27.3999C25.5069 28.15 24.4895 28.5714 23.4286 28.5714H13.7144" stroke="white" stroke-width="2" stroke-linecap="round" stroke-linejoin="round"/>
</g>
<defs>
<clipPath id="clip0">
<rect width="27.4286" height="27.4286" fill="white" transform="translate(6.85718 6.85715)"/>
</clipPath>
</defs>
</svg>
